<svg width="396" height="254" viewBox="0 0 396 254" fill="none" xmlns="http://www.w3.org/2000/svg">
<g clip-path="url(#clip0)">
<path d="M65.4456 253.735C65.1821 253.503 64.9244 253.266 64.6723 253.022C61.7046 250.151 56.3825 244.18 53.8606 241.321C53.684 241.121 53.5518 240.886 53.4727 240.631C53.3936 240.377 53.3694 240.108 53.4016 239.844C53.4338 239.579 53.5217 239.324 53.6595 239.096C53.7974 238.867 53.9821 238.671 54.2016 238.518L59.0995 235.112C58.9102 235.017 58.8045 234.963 58.8045 234.963L62.319 229.901C61.9305 222.167 78.4608 201.12 82.5976 197.973C86.7345 194.826 72.8909 169.968 72.8909 169.968C70.7859 169.156 69.0838 167.433 67.7805 165.606C67.701 165.62 67.6221 165.635 67.5414 165.647L65.7699 165.484C65.0299 165.416 64.3378 165.09 63.816 164.563C63.2943 164.036 62.9765 163.343 62.919 162.605C62.7368 160.523 62.6712 158.434 62.7224 156.345C62.3616 155.262 62.354 153.308 59.9932 151.757C56.9064 149.729 37.0812 98.9892 46.203 89.7012C46.203 89.7012 50.0891 83.9145 52.2869 83.2061C52.2869 83.2061 51.939 81.5116 53.2456 80.7496L53.8783 78.7636C53.8783 78.7636 54.7277 79.1367 55.9924 79.7218C56.9829 78.2715 57.867 76.7518 58.6377 75.1746C58.1992 73.2786 51.62 64.9257 57.5208 59.1508C63.5078 53.2914 66.4649 49.3156 70.9253 50.9006C75.3857 52.4856 85.866 54.8508 85.5592 58.577C85.2525 62.3031 86.3354 63.7677 84.4043 65.297C82.4733 66.8262 82.4061 66.7 82.4061 66.7L82.406 66.6997C82.8816 68.551 82.8865 70.4911 82.4203 72.3447C81.9541 74.1983 81.0315 75.907 79.7359 77.3164C78.4402 78.7258 76.8124 79.7914 74.9995 80.4169C73.1866 81.0424 71.2458 81.208 69.3525 80.899C68.458 82.607 67.7202 84.392 67.148 86.2322C67.7001 87.2767 67.8871 88.4745 67.6798 89.6366C69.689 92.5945 71.5163 95.6711 73.1514 98.8493C74.4596 101.363 76.8795 106.687 79.5311 112.36C84.1885 110.864 88.3998 109.35 88.3998 109.35C88.3998 109.35 88.6438 109.637 89.0273 110.107C90.3461 109.884 91.6798 109.759 93.0174 109.734L104.261 98.4563C104.411 98.2843 104.62 98.1735 104.847 98.1453C105.075 98.1171 105.304 98.1733 105.493 98.3033L115.374 102.968C115.491 103.076 115.586 103.207 115.651 103.353C115.716 103.499 115.751 103.656 115.753 103.815C115.755 103.975 115.725 104.133 115.664 104.281C115.603 104.428 115.512 104.562 115.398 104.673L105.608 115.025C106.376 115.846 105.069 116.849 102.957 117.828L100.385 120.548C100.302 120.652 100.197 120.737 100.077 120.796C99.9575 120.856 99.8264 120.888 99.6929 120.892C99.5594 120.895 99.4267 120.869 99.3043 120.816C99.1818 120.763 99.0725 120.684 98.9841 120.584L98.1125 119.669C96.5217 120.191 94.946 120.653 93.6723 121.009C93.7657 121.465 93.6996 121.8 93.4025 121.945C92.8636 122.207 90.0016 123.793 86.0969 125.775C87.6601 128.708 89.0183 130.944 89.937 131.828C92.7497 134.533 92.6818 141.996 92.5377 144.924C93.4346 146.262 94.6902 148.313 94.6623 149.268C99.6205 156.623 108.437 170.492 109.802 178.021C109.802 178.021 116.211 186.535 117.116 197.729C118.022 208.923 129.482 234.853 130.21 235.223C130.32 235.279 130.303 235.51 130.167 235.85C133.954 237.155 124.111 253.814 122.107 253.25C120.365 252.761 117.733 243.885 117.737 241.158C117.676 241.142 117.617 241.131 117.557 241.115C117.557 241.115 115.148 234.636 113.33 233.711C111.512 232.786 102.177 204.056 102.217 199.509C102.223 198.811 101.616 197.64 100.589 196.16C99.8698 199.111 98.0998 201.703 95.6074 203.453C82.3808 212.25 73.3736 239.638 71.7253 240.169C71.6295 240.194 71.5305 240.204 71.4316 240.199C71.2914 244.106 71.3689 251.512 73.8999 252.466C74.6613 252.751 75.3463 253.207 75.9016 253.799" fill="#F2F2F2"/>
<path d="M9.19678 196.71C10.4646 196.067 11.8874 195.788 13.3054 195.905C14.7235 196.022 16.0808 196.53 17.2253 197.372C20.6608 199.978 21.1843 205.078 19.8924 209.182C18.6005 213.286 15.8965 216.773 13.7794 220.522C10.9359 225.558 9.10463 231.32 9.57669 237.078C10.0488 242.836 13.0823 248.547 18.1412 251.374C22.8367 253.998 28.5251 253.897 33.9062 253.726" stroke="#F2F2F2" stroke-miterlimit="10"/>
<path d="M0.698843 202.043C-0.0888672 200.697 1.5287 198.296 4.31175 196.68C7.09479 195.065 9.98944 194.847 10.7771 196.193C11.5649 197.54 9.94733 199.941 7.16429 201.556C4.38125 203.171 1.48655 203.389 0.698843 202.043Z" fill="#F2F2F2"/>
<path d="M6.06417 220.443C5.27645 219.097 6.89398 216.696 9.67703 215.081C12.4601 213.465 15.3548 213.248 16.1425 214.594C16.9302 215.94 15.3126 218.341 12.5296 219.956C9.74653 221.572 6.85188 221.79 6.06417 220.443Z" fill="#F2F2F2"/>
<path d="M16.7888 217.676C16.0011 216.33 17.6187 213.929 20.4017 212.314C23.1848 210.699 26.0795 210.481 26.8672 211.827C27.6549 213.173 26.0374 215.574 23.2543 217.189C20.4712 218.805 17.5766 219.023 16.7888 217.676Z" fill="#F2F2F2"/>
<path d="M10.2777 239.512C9.49002 238.166 11.1076 235.765 13.8906 234.15C16.6737 232.534 19.5684 232.316 20.3561 233.663C21.1438 235.009 19.5262 237.41 16.7432 239.025C13.9601 240.64 11.0654 240.858 10.2777 239.512Z" fill="#F2F2F2"/>
<path d="M0.199392 245.361C-0.588321 244.015 1.02921 241.614 3.81226 239.999C6.59532 238.384 9.49 238.166 10.2777 239.512C11.0654 240.858 9.44787 243.259 6.66482 244.875C3.88176 246.49 0.987105 246.708 0.199392 245.361Z" fill="#F2F2F2"/>
<path d="M41.434 192.118C42.8547 192.198 44.2249 192.671 45.391 193.483C46.5572 194.295 47.4731 195.414 48.0362 196.716C49.6871 200.691 47.5615 205.359 44.3705 208.258C41.1795 211.156 37.0805 212.812 33.3563 214.99C28.3539 217.915 23.8589 221.975 21.356 227.187C18.853 232.399 18.5868 238.854 21.5289 243.833C24.2597 248.455 29.2251 251.221 33.9609 253.772" stroke="#3F3D56" stroke-miterlimit="10"/>
<path d="M37.2282 195.286C34.0071 195.286 31.3959 194.023 31.3959 192.464C31.3959 190.906 34.0071 189.643 37.2282 189.643C40.4493 189.643 43.0605 190.906 43.0605 192.464C43.0605 194.023 40.4493 195.286 37.2282 195.286Z" fill="#C9FFCE"/>
<path d="M32.5623 213.874C29.3412 213.874 26.73 212.611 26.73 211.053C26.73 209.495 29.3412 208.231 32.5623 208.231C35.7834 208.231 38.3947 209.495 38.3947 211.053C38.3947 212.611 35.7834 213.874 32.5623 213.874Z" fill="#C9FFCE"/>
<path d="M43.2272 216.862C40.0061 216.862 37.3948 215.599 37.3948 214.04C37.3948 212.482 40.0061 211.219 43.2272 211.219C46.4483 211.219 49.0595 212.482 49.0595 214.04C49.0595 215.599 46.4483 216.862 43.2272 216.862Z" fill="#C9FFCE"/>
<path d="M26.5634 232.463C23.3423 232.463 20.7311 231.2 20.7311 229.641C20.7311 228.083 23.3423 226.82 26.5634 226.82C29.7845 226.82 32.3958 228.083 32.3958 229.641C32.3958 231.2 29.7845 232.463 26.5634 232.463Z" fill="#C9FFCE"/>
<path d="M14.8987 232.463C11.6776 232.463 9.06641 231.2 9.06641 229.641C9.06641 228.083 11.6776 226.82 14.8987 226.82C18.1198 226.82 20.7311 228.083 20.7311 229.641C20.7311 231.2 18.1198 232.463 14.8987 232.463Z" fill="#C9FFCE"/>
<path d="M173.838 253.734H9.06639" stroke="white" stroke-miterlimit="10"/>
<path d="M133.169 114.156C133.169 114.156 151.495 117.04 149.243 113.401C146.991 109.761 134.998 106.125 132.798 106.885C130.599 107.644 133.169 114.156 133.169 114.156Z" fill="#FFC1C7"/>
<path opacity="0.1" d="M133.169 114.156C133.169 114.156 151.495 117.04 149.243 113.401C146.991 109.761 134.998 106.125 132.798 106.885C130.599 107.644 133.169 114.156 133.169 114.156Z" fill="black"/>
<path d="M112.151 73.4578C112.151 73.4578 123.989 76.6213 118.503 86.6869C118.503 86.6869 109.552 104.23 113.306 105.38C117.059 106.531 134.384 105.955 134.384 105.955C134.384 105.955 138.427 115.733 136.406 116.021C134.384 116.309 102.045 122.923 98.5795 116.596C95.1146 110.269 98.5795 82.9482 98.5795 82.9482C98.5795 82.9482 103.488 69.4315 112.151 73.4578Z" fill="#FFF3C9"/>
<path opacity="0.1" d="M112.151 73.4578C112.151 73.4578 123.989 76.6213 118.503 86.6869C118.503 86.6869 109.552 104.23 113.306 105.38C117.059 106.531 134.384 105.955 134.384 105.955C134.384 105.955 138.427 115.733 136.406 116.021C134.384 116.309 102.045 122.923 98.5795 116.596C95.1146 110.269 98.5795 82.9482 98.5795 82.9482C98.5795 82.9482 103.488 69.4315 112.151 73.4578Z" fill="#FFF3C9"/>
<path d="M78.6559 223.004C78.6559 223.004 73.4584 235.371 76.3459 237.671C79.2334 239.972 78.6559 244.286 76.6347 244.286C74.6134 244.286 69.9934 240.26 67.3947 235.371C65.4588 231.729 62.2411 224.416 60.7255 220.923C60.6194 220.678 60.5663 220.414 60.5698 220.147C60.5733 219.881 60.6331 219.618 60.7456 219.376C60.858 219.134 61.0204 218.919 61.2222 218.744C61.4239 218.569 61.6605 218.438 61.9165 218.361L70.2822 215.815L78.6559 223.004Z" fill="#3F3D56"/>
<path d="M133.518 237.959C133.518 237.959 144.491 246.874 150.266 246.587C156.04 246.299 156.907 252.339 150.266 253.201C143.624 254.064 123.701 254.352 121.968 253.201C120.236 252.051 120.813 239.972 121.968 239.685C123.123 239.397 133.518 237.959 133.518 237.959Z" fill="#3F3D56"/>
<path d="M96.2696 146.218C96.2696 146.218 96.2696 155.133 100.89 158.872C100.89 158.872 106.376 186.768 101.467 188.494C96.5583 190.219 74.3247 205.174 72.3034 212.651L67.3947 216.39C67.3947 216.39 76.3459 225.305 78.0784 225.305C79.8109 225.305 96.8471 202.01 112.151 197.696C112.151 197.696 121.679 195.396 121.391 183.029C121.102 170.663 109.841 137.878 109.841 137.878H96.8471L96.2696 146.218Z" fill="#2F2E41"/>
<path opacity="0.1" d="M96.2696 146.218C96.2696 146.218 96.2696 155.133 100.89 158.872C100.89 158.872 106.376 186.768 101.467 188.494C96.5583 190.219 74.3247 205.174 72.3034 212.651L67.3947 216.39C67.3947 216.39 76.3459 225.305 78.0784 225.305C79.8109 225.305 96.8471 202.01 112.151 197.696C112.151 197.696 121.679 195.396 121.391 183.029C121.102 170.663 109.841 137.878 109.841 137.878H96.8471L96.2696 146.218Z" fill="black"/>
<path d="M126.299 140.179C126.299 140.179 134.962 167.212 133.518 177.853C133.518 177.853 136.983 187.918 134.384 198.847C131.786 209.775 134.673 237.959 135.251 238.534C135.828 239.109 128.898 245.149 121.391 240.26C121.391 240.26 121.102 233.358 119.658 231.92C118.214 230.482 118.214 200.285 119.658 195.971C121.102 191.657 104.066 160.31 104.066 160.31C104.066 160.31 94.8257 151.97 98.2907 147.656C101.756 143.342 98.002 134.714 98.002 134.714L124.278 136.44L126.299 140.179Z" fill="#2F2E41"/>
<path d="M130.342 74.3205C123.963 74.3205 118.792 69.1702 118.792 62.8169C118.792 56.4637 123.963 51.3134 130.342 51.3134C136.721 51.3134 141.892 56.4637 141.892 62.8169C141.892 69.1702 136.721 74.3205 130.342 74.3205Z" fill="#FFC1C7"/>
<path d="M122.834 57.6403C122.834 57.6403 113.594 68.2811 111.284 68.5687C108.974 68.8563 118.792 81.2227 118.792 81.2227C118.792 81.2227 124.278 72.0198 128.032 71.157C131.786 70.2943 122.834 57.6403 122.834 57.6403Z" fill="#FFC1C7"/>
<path d="M109.552 68.2812L110.996 66.268C110.996 66.268 120.944 75.1014 121.312 77.443C121.56 78.757 121.277 80.1154 120.524 81.2227L114.75 78.6344L111.862 72.8826L109.552 68.2812Z" fill="#3F3D56"/>
<path d="M126.877 139.603C126.877 139.603 129.187 146.506 127.454 146.218C125.722 145.93 125.722 142.192 123.701 142.192C121.68 142.192 120.524 139.028 120.524 139.028L126.877 139.603Z" fill="#3F3D56"/>
<path d="M112.151 140.179C112.151 140.179 105.51 154.558 97.1358 153.12L95.5007 152.422C94.8175 152.131 94.2599 151.608 93.9263 150.947C93.5928 150.286 93.5049 149.528 93.6783 148.809C94.4761 145.496 95.9429 140.179 97.1358 140.179H112.151Z" fill="#3F3D56"/>
<path d="M141.867 63.539C141.867 63.539 140.737 59.941 136.983 61.379C133.229 62.8169 130.053 65.9804 129.187 63.6797C128.321 61.379 126.104 59.2625 124.614 61.0397C123.123 62.817 116.338 66.1243 116.626 64.3987C116.915 62.6732 113.017 52.4637 120.524 48.7251C128.032 44.9864 132.074 42.1105 135.828 44.9864C139.582 47.8623 148.822 53.3265 147.378 56.7776C145.934 60.2287 146.512 61.9542 144.202 62.817C141.892 63.6797 141.867 63.539 141.867 63.539Z" fill="#2F2E41"/>
<path d="M108.108 70.0067C108.108 70.0067 108.397 67.4184 110.996 67.9936C113.595 68.5687 120.524 80.0723 120.524 80.0723C121.656 83.7452 122.524 87.4932 123.123 91.2883C124.278 98.1905 126.588 123.498 128.898 127.812C131.208 132.126 126.877 142.192 126.877 142.192C126.877 142.192 124.278 139.316 115.905 141.041C107.531 142.767 96.5584 144.492 95.6921 143.63C94.8259 142.767 96.5584 140.466 94.2484 137.59C91.9384 134.714 88.7621 80.3599 100.312 74.3205C100.312 74.3205 105.798 70.0067 108.108 70.0067Z" fill="#D32727"/>
<path opacity="0.1" d="M110.996 78.6344C110.996 78.6344 122.834 81.7979 117.348 91.8635C117.348 91.8635 108.397 109.406 112.151 110.557C115.904 111.707 133.229 111.132 133.229 111.132C133.229 111.132 135.106 117.315 133.085 117.603C131.064 117.89 100.89 128.1 97.4246 121.773C93.9596 115.446 97.4246 88.1249 97.4246 88.1249C97.4246 88.1249 102.333 74.6081 110.996 78.6344Z" fill="black"/>
<path d="M161.517 109.785L142.325 120.284C142.214 120.358 142.088 120.406 141.956 120.426C141.824 120.446 141.689 120.437 141.561 120.399C141.433 120.361 141.315 120.296 141.215 120.208C141.114 120.12 141.035 120.011 140.982 119.889L136.28 110.102C136.191 109.823 136.206 109.521 136.321 109.252C136.436 108.983 136.645 108.764 136.909 108.635L152.843 100.455C153.039 100.337 153.272 100.296 153.497 100.339C153.722 100.381 153.923 100.505 154.062 100.687L162.021 108.155C162.099 108.294 162.149 108.448 162.166 108.606C162.183 108.765 162.167 108.925 162.12 109.078C162.073 109.23 161.995 109.371 161.891 109.493C161.788 109.614 161.66 109.714 161.517 109.785Z" fill="#2F2E41"/>
<path d="M160.236 108.339L142.244 118.581L137.457 109.987L152.891 101.627L160.236 108.339Z" fill="white"/>
<path d="M144.798 105.437C144.702 105.357 144.7 105.202 144.794 105.09C144.888 104.978 145.041 104.952 145.137 105.032C145.233 105.111 145.234 105.267 145.141 105.378C145.047 105.49 144.893 105.517 144.798 105.437Z" fill="#F2F2F2"/>
<path d="M151.534 114.162C151.471 114.109 151.469 114.006 151.532 113.931C151.594 113.857 151.697 113.839 151.761 113.892C151.824 113.945 151.826 114.049 151.763 114.123C151.701 114.198 151.598 114.215 151.534 114.162Z" fill="#F2F2F2"/>
<path d="M132.901 118.515C132.901 118.515 151.409 119.807 148.849 116.375C146.289 112.944 134.024 110.356 131.899 111.302C129.774 112.248 132.901 118.515 132.901 118.515Z" fill="#FFC1C7"/>
<path d="M110.996 76.9089C110.996 76.9089 122.834 80.0723 117.348 90.138C117.348 90.138 108.397 107.681 112.151 108.831C115.904 109.982 133.229 109.406 133.229 109.406C133.229 109.406 137.272 119.185 135.251 119.472C133.229 119.76 100.89 126.374 97.4246 120.047C93.9597 113.72 97.4246 86.3993 97.4246 86.3993C97.4246 86.3993 102.333 72.8826 110.996 76.9089Z" fill="#2E3192"/>
<path d="M191.611 64.262H284.787C287.774 64.262 290.196 66.6738 290.196 69.6488V110.327C290.196 113.302 287.774 115.714 284.787 115.714H191.611C188.624 115.714 186.202 113.302 186.202 110.327V69.6488C186.202 66.6738 188.624 64.262 191.611 64.262Z" fill="#F2F2F2"/>
<path d="M389.201 16.1322C385.446 16.1322 382.402 13.1005 382.402 9.36067C382.402 5.62085 385.446 2.58913 389.201 2.58913C392.956 2.58913 396 5.62085 396 9.36067C396 13.1005 392.956 16.1322 389.201 16.1322Z" fill="#ED1C24"/>
<path d="M387.202 13.7422C383.447 13.7422 380.403 10.7105 380.403 6.9707C380.403 3.23088 383.447 0.199158 387.202 0.199158C390.956 0.199158 394 3.23088 394 6.9707C394 10.7105 390.956 13.7422 387.202 13.7422Z" stroke="#3F3D56" stroke-miterlimit="10"/>
<path d="M306.415 101.374C302.66 101.374 299.617 98.3423 299.617 94.6025C299.617 90.8626 302.66 87.8309 306.415 87.8309C310.17 87.8309 313.214 90.8626 313.214 94.6025C313.214 98.3423 310.17 101.374 306.415 101.374Z" fill="#F2F2F2"/>
<path d="M304.416 98.984C300.661 98.984 297.617 95.9523 297.617 92.2125C297.617 88.4727 300.661 85.4409 304.416 85.4409C308.171 85.4409 311.215 88.4727 311.215 92.2125C311.215 95.9523 308.171 98.984 304.416 98.984Z" stroke="#3F3D56" stroke-miterlimit="10"/>
<path d="M253.624 49.9899C249.87 49.9899 246.826 46.9582 246.826 43.2184C246.826 39.4786 249.87 36.4468 253.624 36.4468C257.379 36.4468 260.423 39.4786 260.423 43.2184C260.423 46.9582 257.379 49.9899 253.624 49.9899Z" fill="#ED1C24"/>
<path d="M251.625 47.6C247.87 47.6 244.826 44.5683 244.826 40.8284C244.826 37.0886 247.87 34.0569 251.625 34.0569C255.38 34.0569 258.424 37.0886 258.424 40.8284C258.424 44.5683 255.38 47.6 251.625 47.6Z" stroke="#3F3D56" stroke-miterlimit="10"/>
<path d="M281.93 25.0847H375.106C378.093 25.0847 380.515 27.4964 380.515 30.4715V71.1496C380.515 74.1247 378.093 76.5364 375.106 76.5364H281.93C278.943 76.5364 276.521 74.1247 276.521 71.1496V30.4715C276.521 27.4964 278.943 25.0847 281.93 25.0847Z" fill="#ED1C24"/>
<path d="M275.852 20.713H369.029C372.016 20.713 374.437 23.1247 374.437 26.0998V66.7779C374.437 69.7529 372.016 72.1647 369.029 72.1647H275.852C272.865 72.1647 270.444 69.7529 270.444 66.7779V26.0998C270.444 23.1247 272.865 20.713 275.852 20.713Z" stroke="#3F3D56" stroke-miterlimit="10"/>
<path d="M185.533 59.8903H278.71C281.697 59.8903 284.118 62.302 284.118 65.2771V105.955C284.118 108.93 281.697 111.342 278.71 111.342H185.533C182.546 111.342 180.125 108.93 180.125 105.955V65.2771C180.125 62.302 182.546 59.8903 185.533 59.8903Z" stroke="#3F3D56" stroke-miterlimit="10"/>
</g>
<defs>
<clipPath id="clip0">
<rect width="396" height="254" fill="white" transform="matrix(-1 0 0 1 396 0)"/>
</clipPath>
</defs>
</svg>
