<svg width="46" height="40" viewBox="0 0 46 40" fill="none" xmlns="http://www.w3.org/2000/svg">
<g clip-path="url(#clip0)">
<path d="M42.3 27.8C42 27.4 41.5 27.2 41 27.2H32.6C32.6 25.6 31.5 24.2 29.9 23.8L26.2 22.8V21.4C27.8 20.7 29 19.4 29.8 17.9H31.5V18.5C31.5 19 31.3 19.5 31 19.9C30.8 19.8 30.5 19.7 30.2 19.7C29.3 19.7 28.5 20.5 28.5 21.4C28.5 22.3 29.3 23.1 30.2 23.1C31.1 23.1 31.9 22.3 31.9 21.4C31.9 21.2 31.9 21 31.8 20.8L31.9 20.7C32.4 20.1 32.7 19.3 32.7 18.5V17.8C33.4 17.5 34 16.8 34 15.9V13.9C34 13 33.5 12.3 32.7 12V9.7C32.7 8.2 32.4 6.8 31.7 5.4C31.6 5.1 31.2 5 30.9 5.1C30.6 5.2 30.5 5.6 30.6 5.9C31.2 7.1 31.5 8.3 31.5 9.7V11.8H30.6V11C30.6 10.5 30.2 10.1 29.7 10H29.2C28.8 10 28.5 9.8 28.2 9.6L26.3 8C26 7.7 25.5 7.7 25.2 8C23.2 9.4 20.9 10.1 18.5 10.1H16.3C15.8 10.1 15.3 10.5 15.3 11.1V11.8H14.7C14.6 11.8 14.6 11.8 14.5 11.8V9.7C14.5 5 18.3 1.2 23 1.2C25.4 1.2 27.7 2.2 29.3 4C29.5 4.2 29.9 4.3 30.1 4C30.3 3.8 30.4 3.4 30.1 3.2C28.3 1.2 25.6 0 22.9 0C17.6 0 13.2 4.4 13.2 9.7V12.7C13.1 12.9 13 13.2 13 13.4V15.2C13 16.5 14 17.5 15.3 17.5H15.8C16 17.9 16.2 18.2 16.4 18.6C16.6 18.9 16.9 18.9 17.2 18.8C17.5 18.6 17.5 18.3 17.4 18C16.7 17 16.4 15.7 16.4 14.5V11.4H18.4C21 11.4 23.5 10.6 25.6 9.2L27.3 10.7C27.8 11.1 28.4 11.3 29 11.4H29.3V14.6C29.3 18.2 26.4 21.1 22.8 21.1C21.4 21.1 20 20.7 18.9 19.8C18.6 19.6 18.3 19.7 18.1 19.9C17.9 20.2 18 20.5 18.2 20.7C18.6 21 19.1 21.3 19.5 21.5V22.9L15.8 23.9C14.2 24.3 13.1 25.7 13.1 27.3H4.8C4.3 27.3 3.8 27.5 3.5 27.9C3.1 28.2 3 28.6 3 29.1L3.8 38.4C3.9 39.3 4.7 40 5.6 40H40.2C41.1 40 41.9 39.3 42 38.4L42.2 36.6C42.2 36.3 42 36 41.7 36C41.4 36 41.1 36.2 41.1 36.5L40.9 38.3C40.9 38.6 40.6 38.8 40.3 38.8H5.6C5.3 38.8 5 38.6 5 38.3L4.2 29C4.2 28.8 4.2 28.7 4.4 28.5C4.5 28.4 4.7 28.3 4.8 28.3H41C41.2 28.3 41.3 28.4 41.4 28.5C41.5 28.6 41.6 28.8 41.6 29L41.2 34C41.2 34.3 41.4 34.6 41.7 34.6C42 34.6 42.3 34.4 42.3 34.1L42.7 29.1C42.8 28.6 42.6 28.2 42.3 27.8ZM15.4 16.4C14.8 16.4 14.3 15.9 14.3 15.3V13.5C14.3 13.3 14.5 13.1 14.7 13.1H15.3V14.5C15.2 15.1 15.3 15.7 15.4 16.4ZM30.1 21.9C29.8 21.9 29.6 21.7 29.6 21.4C29.6 21.1 29.8 20.9 30.1 20.9C30.4 20.9 30.6 21.1 30.6 21.4C30.6 21.7 30.4 21.9 30.1 21.9ZM31.9 13C32.4 13 32.7 13.4 32.7 13.8V15.8C32.7 16.3 32.3 16.6 31.9 16.6H30.2C30.4 15.9 30.5 15.1 30.5 14.4V13H31.9ZM22.9 22.1C23.6 22.1 24.3 22 25 21.8V23.2C25 24 24.3 24.7 23.5 24.7H22.2C21.4 24.7 20.7 24 20.7 23.2V21.8C21.4 22 22.1 22.1 22.9 22.1ZM14.4 27.2C14.4 26.1 15.1 25.2 16.2 24.9L19.7 24C20 25.1 21 25.9 22.2 25.9H23.5C24.7 25.9 25.7 25.1 26 24L29.5 24.9C30.5 25.2 31.3 26.1 31.3 27.2H14.4Z" fill="#083A7D"/>
<path d="M24.5 34.5002C24.3 34.7002 24.2 35.0002 24.2 35.2002V35.7002C24.2 36.3002 24.7 36.7002 25.2 36.7002H27.5C28.2 36.7002 28.8 36.1002 28.8 35.4002V34.4002C28.8 32.1002 26.9 30.2002 24.6 30.2002H21.1C18.8 30.2002 16.9 32.1002 16.9 34.4002V35.4002C16.9 36.1002 17.5 36.7002 18.2 36.7002H20.5C21.1 36.7002 21.5 36.2002 21.5 35.7002V35.2002C21.5 34.9002 21.4 34.7002 21.2 34.5002C21.2 34.5002 21.2 34.5002 21.2 34.4002C21.2 34.4002 21.2 34.4002 21.2 34.3002H24.4C24.4 34.3002 24.4 34.3002 24.4 34.4002C24.6 34.5002 24.5 34.5002 24.5 34.5002ZM24.5 33.2002H21.3C21 33.2002 20.7 33.3002 20.5 33.5002C20.2 33.7002 20.1 34.1002 20.1 34.4002C20.1 34.7002 20.2 35.1002 20.5 35.3002V35.6002H18.3C18.2 35.6002 18.1 35.5002 18.1 35.4002V34.4002C18.1 32.7002 19.5 31.3002 21.2 31.3002H24.7C26.4 31.3002 27.8 32.7002 27.8 34.4002V35.4002C27.8 35.5002 27.7 35.6002 27.6 35.6002H25.4V35.3002C25.6 35.1002 25.8 34.7002 25.8 34.4002C25.8 34.1002 25.6 33.7002 25.4 33.5002C25.1 33.3002 24.8 33.2002 24.5 33.2002Z" fill="#083A7D"/>
</g>
<defs>
<clipPath id="clip0">
<rect width="45.7" height="40" fill="white"/>
</clipPath>
</defs>
</svg>
