<svg width="50" height="50" viewBox="0 0 50 50" fill="none" xmlns="http://www.w3.org/2000/svg">
<path d="M12.2117 40.1367H37.7883V42.9295H12.2117V40.1367Z" fill="#EBE7F2"/>
<path d="M18.8799 11.9409H31.1203V14.4028H18.8799V11.9409Z" fill="#EBE7F2"/>
<path d="M44.4174 15.4409L45.4557 16.4792L33.7594 28.1755L30.5582 29.2999L29.8424 31.338L35.0815 29.4976L46.7777 17.8013L44.4174 15.4409Z" fill="#EBE7F2"/>
<path d="M37.7885 29.0095C37.5188 29.0095 37.3002 29.228 37.3002 29.4978V42.4413H12.6998V12.4292H16.7195C16.9893 12.4292 17.2078 12.2106 17.2078 11.9409C17.2078 11.6712 16.9893 11.4526 16.7195 11.4526H12.2115C11.9418 11.4526 11.7232 11.6712 11.7232 11.9409V42.9298C11.7232 43.1995 11.9418 43.4181 12.2115 43.4181H37.7883C38.058 43.4181 38.2766 43.1995 38.2766 42.9298V29.498C38.2768 29.228 38.058 29.0095 37.7885 29.0095V29.0095Z" fill="#023D8B" stroke="#023D8B" stroke-width="0.4"/>
<path d="M33.2803 12.4292H37.3V17.1228C37.3 17.3925 37.5186 17.611 37.7883 17.611C38.058 17.611 38.2766 17.3925 38.2766 17.1228V11.9409C38.2766 11.6712 38.058 11.4526 37.7883 11.4526H33.2803C33.0106 11.4526 32.792 11.6712 32.792 11.9409C32.792 12.2106 33.0107 12.4292 33.2803 12.4292Z" fill="#023D8B"/>
<path d="M18.8799 14.891H31.1203C31.39 14.891 31.6086 14.6725 31.6086 14.4027V9.4789C31.6086 9.20918 31.39 8.99062 31.1203 8.99062H27.7383C27.8453 8.68535 27.9004 8.3623 27.9004 8.03047C27.9004 6.43125 26.5994 5.12988 25 5.12988C23.4006 5.12988 22.0996 6.43105 22.0996 8.03047C22.0996 8.3623 22.1547 8.68555 22.2617 8.99062H18.8799C18.6102 8.99062 18.3916 9.20918 18.3916 9.4789V14.4027C18.3916 14.6725 18.6102 14.891 18.8799 14.891V14.891ZM19.3682 9.96719H23.0713C23.2563 9.96719 23.4254 9.8625 23.5082 9.69687C23.5908 9.53125 23.5727 9.3332 23.4613 9.18535C23.2094 8.85039 23.0762 8.45117 23.0762 8.03047C23.0762 6.96953 23.9393 6.10645 25 6.10645C26.0607 6.10645 26.9238 6.96953 26.9238 8.03047C26.9238 8.45117 26.7906 8.85039 26.5387 9.18535C26.4273 9.3332 26.4092 9.53125 26.4918 9.69687C26.5746 9.8625 26.7438 9.96719 26.9287 9.96719H30.632V13.9144H19.3682V9.96719Z" fill="#023D8B"/>
<path d="M28.3853 28.3203H16.4063C16.1365 28.3203 15.918 28.5389 15.918 28.8086C15.918 29.0783 16.1365 29.2969 16.4063 29.2969H28.3853C28.6551 29.2969 28.8736 29.0783 28.8736 28.8086C28.8736 28.5389 28.6551 28.3203 28.3853 28.3203Z" fill="#023D8B"/>
<path d="M33.5938 32.1289H16.4063C16.1365 32.1289 15.918 32.3475 15.918 32.6172C15.918 32.8869 16.1365 33.1055 16.4063 33.1055H33.5938C33.8635 33.1055 34.082 32.8869 34.082 32.6172C34.082 32.3475 33.8635 32.1289 33.5938 32.1289Z" fill="#023D8B"/>
<path d="M33.5938 35.9375H16.4063C16.1365 35.9375 15.918 36.1561 15.918 36.4258C15.918 36.6955 16.1365 36.9141 16.4063 36.9141H33.5938C33.8635 36.9141 34.082 36.6955 34.082 36.4258C34.082 36.1561 33.8635 35.9375 33.5938 35.9375Z" fill="#023D8B"/>
<path d="M47.1231 17.4563L43.7244 14.0577C43.5336 13.8668 43.2246 13.8668 43.034 14.0577L31.3377 25.7539C31.3123 25.7793 31.2908 25.8069 31.2723 25.836C31.2676 25.8432 31.2645 25.8514 31.2602 25.859C31.2473 25.8819 31.2354 25.9047 31.2264 25.9289C31.2252 25.9319 31.2233 25.9346 31.2223 25.9375L29.3818 31.1766C29.3195 31.3536 29.3645 31.5508 29.4973 31.6836C29.5904 31.7768 29.7152 31.8266 29.8426 31.8266C29.8969 31.8266 29.9516 31.8176 30.0043 31.7989L35.2434 29.9584C35.2463 29.9575 35.249 29.9555 35.252 29.9543C35.276 29.9454 35.2992 29.9336 35.3219 29.9205C35.3293 29.9163 35.3375 29.9131 35.3449 29.9084C35.3738 29.8899 35.4016 29.8684 35.427 29.843L47.1231 18.1467C47.3137 17.9561 47.3137 17.6471 47.1231 17.4563ZM35.0815 28.8073L32.3733 26.0991L41.3031 17.1692L44.0113 19.8774L35.0815 28.8073ZM31.8863 26.993L34.1877 29.2944L30.6404 30.5405L31.8863 26.993ZM44.7018 19.187L41.9936 16.4788L43.3791 15.0932L46.0873 17.8014L44.7018 19.187Z" fill="#023D8B" stroke="#023D8B" stroke-width="0.4"/>
<path d="M33.5938 22.0305C33.8635 22.0305 34.082 21.8119 34.082 21.5422V18.8965C34.082 18.6268 33.8635 18.4082 33.5938 18.4082H24.4629C24.1932 18.4082 23.9746 18.6268 23.9746 18.8965V25C23.9746 25.2697 24.1932 25.4883 24.4629 25.4883H29.8424C30.1121 25.4883 30.3307 25.2697 30.3307 25C30.3307 24.7303 30.1121 24.5117 29.8424 24.5117H24.9512V19.3848H33.1055V21.5422C33.1055 21.8119 33.324 22.0305 33.5938 22.0305V22.0305Z" fill="#023D8B"/>
</svg>
