<svg width="47" height="38" viewBox="0 0 47 38" fill="none" xmlns="http://www.w3.org/2000/svg">
<path d="M26.281 24.641H41.4638L40.2271 21.4094C40.0435 20.9295 39.5831 20.6128 39.0693 20.6128H28.0102C27.4356 21.996 26.8449 23.3643 26.281 24.641Z" fill="#D4E6F3"/>
<path d="M26.281 24.641H41.4638L40.2271 21.4094C40.0435 20.9295 39.5831 20.6128 39.0693 20.6128H28.0102C27.4356 21.996 26.8449 23.3643 26.281 24.641Z" stroke="#023D8B"/>
<path d="M18.1588 20.6128H7.09971C6.58589 20.6128 6.12556 20.9295 5.94191 21.4094L4.70523 24.641H19.888C19.3242 23.3646 18.7334 21.9962 18.1588 20.6128Z" fill="#D4E6F3"/>
<path d="M18.1588 20.6128H7.09971C6.58589 20.6128 6.12556 20.9295 5.94191 21.4094L4.70523 24.641H19.888C19.3242 23.3646 18.7334 21.9962 18.1588 20.6128Z" stroke="#023D8B"/>
<path d="M44.7513 33.2339C44.618 33.2835 44.4724 33.3108 44.3186 33.3108H1.85037C1.69652 33.3108 1.55097 33.2835 1.41763 33.2339L0.692572 35.1287C0.381937 35.9402 0.981229 36.8113 1.85037 36.8113H44.3186C45.1877 36.8113 45.7868 35.9405 45.4764 35.1287L44.7513 33.2339Z" fill="#D4E6F3"/>
<path d="M44.7513 33.2339C44.618 33.2835 44.4724 33.3108 44.3186 33.3108H1.85037C1.69652 33.3108 1.55097 33.2835 1.41763 33.2339L0.692572 35.1287C0.381937 35.9402 0.981229 36.8113 1.85037 36.8113H44.3186C45.1877 36.8113 45.7868 35.9405 45.4764 35.1287L44.7513 33.2339Z" stroke="#023D8B"/>
<path d="M46.0466 34.91L40.7973 21.1908C40.5253 20.4796 39.8307 20.002 39.0693 20.002H30.4521C30.1148 20.002 29.8415 20.2752 29.8415 20.6125C29.8415 20.9497 30.1148 21.223 30.4521 21.223H39.0693C39.3281 21.223 39.5643 21.3854 39.6568 21.6272L44.9061 35.3464C44.9814 35.5428 44.956 35.7545 44.837 35.9277C44.7179 36.1008 44.5288 36.2002 44.3186 36.2002H1.85037C1.64011 36.2002 1.45133 36.1008 1.33191 35.9277C1.21274 35.7545 1.18758 35.5428 1.2628 35.3464L6.5121 21.6272C6.60466 21.3854 6.84081 21.223 7.09967 21.223H15.7166C16.0539 21.223 16.3272 20.9497 16.3272 20.6125C16.3272 20.2752 16.0539 20.002 15.7166 20.002H7.09967C6.33823 20.002 5.64394 20.4796 5.37164 21.1908L0.122337 34.91C-0.0954988 35.4788 -0.0193052 36.1179 0.326008 36.6197C0.671322 37.1218 1.24107 37.4212 1.85037 37.4212H44.3186C44.9279 37.4212 45.4976 37.1216 45.8429 36.6197C46.188 36.1179 46.2642 35.4788 46.0466 34.91Z" fill="#D4E6F3"/>
<path d="M22.9859 31.6386L22.9853 31.6373C22.8107 31.2763 20.6605 26.8155 18.5549 21.8469C17.5018 19.3621 16.4629 16.7572 15.6881 14.478C14.9053 12.1753 14.4178 10.2756 14.4178 9.16693C14.4178 4.3884 18.3062 0.5 23.0847 0.5C27.8632 0.5 31.7516 4.3884 31.7516 9.16693C31.7516 10.2756 31.264 12.1753 30.4812 14.478C29.7065 16.7571 28.6675 19.362 27.6145 21.8468C25.5095 26.814 23.3598 31.2738 23.1842 31.6371C23.1655 31.6758 23.1266 31.6999 23.0844 31.6999C23.0416 31.6999 23.0036 31.6754 22.9859 31.6386ZM22.6322 30.3813L23.0844 31.3405L23.5367 30.3813C24.479 28.3828 26.4696 24.0857 28.2257 19.8037C29.1035 17.6633 29.9255 15.5197 30.5289 13.6655C31.1255 11.832 31.5303 10.2181 31.5303 9.16693C31.5303 4.50941 27.742 0.721053 23.0844 0.721053C18.4269 0.721053 14.6386 4.50941 14.6386 9.16693C14.6386 10.2183 15.0434 11.8323 15.64 13.6658C16.2434 15.5201 17.0654 17.6636 17.9432 19.804C19.6992 24.0859 21.6899 28.3828 22.6322 30.3813Z" fill="#083A7D" stroke="#023D8B"/>
<path d="M24.8486 8.56533H24.2217C25.0491 8.13919 25.6064 7.26271 25.5698 6.25999C25.5234 4.98374 24.4774 3.92704 23.2017 3.86843C21.7747 3.80274 20.5969 4.94027 20.5969 6.35303C20.5969 7.31693 21.1452 8.15262 21.9467 8.56558H21.3198C19.8662 8.56558 18.6879 9.74389 18.6879 11.1974V14.9441C18.6879 15.127 18.8362 15.2753 19.0191 15.2753H27.1488C27.3318 15.2753 27.48 15.127 27.48 14.9441V11.1972C27.4805 9.74365 26.3022 8.56533 24.8486 8.56533ZM25.3725 10.9034L22.9137 13.7331C22.8268 13.8332 22.701 13.8908 22.5687 13.8913H22.567C22.4351 13.8913 22.3098 13.8347 22.2221 13.7358L20.8304 12.1586C20.6626 11.9684 20.6807 11.6778 20.8709 11.5098C21.0612 11.342 21.3515 11.3603 21.5198 11.5503L22.564 12.734L24.6787 10.3007C24.8452 10.109 25.1353 10.0885 25.327 10.2553C25.5185 10.4213 25.539 10.7117 25.3725 10.9034Z" fill="#080060"/>
</svg>
